<?xml version="1.0" encoding="UTF-8"?>
<svg width="192px" height="192px" viewBox="0 0 192 192" version="1.1" xmlns="http://www.w3.org/2000/svg" xmlns:xlink="http://www.w3.org/1999/xlink">
    <!-- Generator: Sketch 46.2 (44496) - http://www.bohemiancoding.com/sketch -->
    <title>ic_stat_onesignal_default</title>
    <desc>Created with Sketch.</desc>
    <defs>
        <polygon id="path-1" points="96 0 0 0 0 192.752941 96 192.752941 192 192.752941 192 0"></polygon>
    </defs>
    <g id="Page-1" stroke="none" stroke-width="1" fill="none" fill-rule="evenodd">
        <g id="ic_stat_onesignal_default">
            <g id="Page-1">
                <mask id="mask-2" fill="white">
                    <use xlink:href="#path-1"></use>
                </mask>
                <g id="Clip-2"></g>
                <path d="M172.8,0 L19.2,0 C8.64,0 0,8.67388235 0,19.2752941 L0,173.477647 C0,184.079059 8.64,192.752941 19.2,192.752941 L149.0384,192.752941 L94.7136,41.7518933 L60.0656,138.438375 L60.0656,138.441587 L127.1456,156.216621 L128.2176,158.577845 L22.6864,158.577845 L22.6864,158.576238 L68.864,37.6591059 C72.488,28.2881004 81.472,22.1135812 91.4864,22.1135812 L98.2656,22.1135812 C108.8896,22.1135812 118.3968,28.7282196 122.1264,38.712822 L178.3856,191.911253 C186.2432,189.49381 192,182.130648 192,173.477647 L192,19.2752941 C192,8.67388235 183.3616,0 172.8,0" id="Fill-1" fill="#3FBA91" mask="url(#mask-2)"></path>
            </g>
        </g>
    </g>
</svg>